<mxfile host="app.diagrams.net" modified="2021-05-29T01:35:05.715Z" agent="5.0 (Macintosh; Intel Mac OS X 10_15_7) AppleWebKit/537.36 (KHTML, like Gecko) Chrome/90.0.4430.72 Safari/537.36" etag="kHJWO200qnip68_QwXUO" version="14.7.2" type="github">
  <diagram id="SsjKY8MY1qLet1DXSO1_" name="Page-1">
    <mxGraphModel dx="946" dy="646" grid="1" gridSize="10" guides="1" tooltips="1" connect="1" arrows="1" fold="1" page="1" pageScale="1" pageWidth="850" pageHeight="1100" math="0" shadow="0">
      <root>
        <mxCell id="0" />
        <mxCell id="1" parent="0" />
        <mxCell id="_Wla6LilC17jW7RiicPp-2" value="App.js" style="shape=process;whiteSpace=wrap;html=1;backgroundOutline=1;" vertex="1" parent="1">
          <mxGeometry x="360" width="120" height="60" as="geometry" />
        </mxCell>
        <mxCell id="_Wla6LilC17jW7RiicPp-3" value="GenreList" style="shape=process;whiteSpace=wrap;html=1;backgroundOutline=1;" vertex="1" parent="1">
          <mxGeometry x="360" y="90" width="120" height="60" as="geometry" />
        </mxCell>
        <mxCell id="_Wla6LilC17jW7RiicPp-4" value="SongList" style="shape=process;whiteSpace=wrap;html=1;backgroundOutline=1;" vertex="1" parent="1">
          <mxGeometry x="240" y="200" width="120" height="60" as="geometry" />
        </mxCell>
        <mxCell id="_Wla6LilC17jW7RiicPp-5" value="Genre" style="shape=process;whiteSpace=wrap;html=1;backgroundOutline=1;" vertex="1" parent="1">
          <mxGeometry x="540" y="90" width="120" height="60" as="geometry" />
        </mxCell>
        <mxCell id="_Wla6LilC17jW7RiicPp-6" value="Song" style="shape=process;whiteSpace=wrap;html=1;backgroundOutline=1;" vertex="1" parent="1">
          <mxGeometry x="240" y="300" width="120" height="60" as="geometry" />
        </mxCell>
        <mxCell id="_Wla6LilC17jW7RiicPp-7" value="CommentList" style="shape=process;whiteSpace=wrap;html=1;backgroundOutline=1;" vertex="1" parent="1">
          <mxGeometry x="360" y="400" width="120" height="60" as="geometry" />
        </mxCell>
        <mxCell id="_Wla6LilC17jW7RiicPp-8" value="Comment" style="shape=process;whiteSpace=wrap;html=1;backgroundOutline=1;" vertex="1" parent="1">
          <mxGeometry x="360" y="500" width="120" height="60" as="geometry" />
        </mxCell>
        <mxCell id="_Wla6LilC17jW7RiicPp-10" value="" style="endArrow=classic;html=1;entryX=0.5;entryY=0;entryDx=0;entryDy=0;exitX=0.5;exitY=1;exitDx=0;exitDy=0;" edge="1" parent="1" source="_Wla6LilC17jW7RiicPp-2" target="_Wla6LilC17jW7RiicPp-3">
          <mxGeometry width="50" height="50" relative="1" as="geometry">
            <mxPoint x="430" y="190" as="sourcePoint" />
            <mxPoint x="420" y="230.71067811865476" as="targetPoint" />
          </mxGeometry>
        </mxCell>
        <mxCell id="_Wla6LilC17jW7RiicPp-12" value="" style="endArrow=classic;html=1;exitX=1;exitY=0.5;exitDx=0;exitDy=0;entryX=0;entryY=0.5;entryDx=0;entryDy=0;" edge="1" parent="1" source="_Wla6LilC17jW7RiicPp-3" target="_Wla6LilC17jW7RiicPp-5">
          <mxGeometry width="50" height="50" relative="1" as="geometry">
            <mxPoint x="530" y="300" as="sourcePoint" />
            <mxPoint x="580" y="250" as="targetPoint" />
          </mxGeometry>
        </mxCell>
        <mxCell id="_Wla6LilC17jW7RiicPp-16" value="Add Song" style="shape=process;whiteSpace=wrap;html=1;backgroundOutline=1;" vertex="1" parent="1">
          <mxGeometry x="80" y="300" width="120" height="60" as="geometry" />
        </mxCell>
        <mxCell id="_Wla6LilC17jW7RiicPp-17" value="ArtistList" style="shape=process;whiteSpace=wrap;html=1;backgroundOutline=1;" vertex="1" parent="1">
          <mxGeometry x="480" y="200" width="120" height="60" as="geometry" />
        </mxCell>
        <mxCell id="_Wla6LilC17jW7RiicPp-19" value="Artist" style="shape=process;whiteSpace=wrap;html=1;backgroundOutline=1;" vertex="1" parent="1">
          <mxGeometry x="480" y="300" width="120" height="60" as="geometry" />
        </mxCell>
        <mxCell id="_Wla6LilC17jW7RiicPp-20" value="Add Artist" style="shape=process;whiteSpace=wrap;html=1;backgroundOutline=1;" vertex="1" parent="1">
          <mxGeometry x="640" y="300" width="120" height="60" as="geometry" />
        </mxCell>
        <mxCell id="_Wla6LilC17jW7RiicPp-21" value="" style="endArrow=classic;html=1;exitX=0.5;exitY=1;exitDx=0;exitDy=0;entryX=0.5;entryY=0;entryDx=0;entryDy=0;" edge="1" parent="1" source="_Wla6LilC17jW7RiicPp-3" target="_Wla6LilC17jW7RiicPp-17">
          <mxGeometry width="50" height="50" relative="1" as="geometry">
            <mxPoint x="520" y="280" as="sourcePoint" />
            <mxPoint x="570" y="230" as="targetPoint" />
          </mxGeometry>
        </mxCell>
        <mxCell id="_Wla6LilC17jW7RiicPp-22" value="" style="endArrow=classic;html=1;exitX=0.5;exitY=1;exitDx=0;exitDy=0;entryX=0.5;entryY=0;entryDx=0;entryDy=0;" edge="1" parent="1" source="_Wla6LilC17jW7RiicPp-3" target="_Wla6LilC17jW7RiicPp-4">
          <mxGeometry width="50" height="50" relative="1" as="geometry">
            <mxPoint x="360" y="280" as="sourcePoint" />
            <mxPoint x="430.71067811865476" y="230" as="targetPoint" />
          </mxGeometry>
        </mxCell>
        <mxCell id="_Wla6LilC17jW7RiicPp-23" value="" style="endArrow=classic;html=1;exitX=0.5;exitY=1;exitDx=0;exitDy=0;entryX=0.5;entryY=0;entryDx=0;entryDy=0;" edge="1" parent="1" source="_Wla6LilC17jW7RiicPp-17" target="_Wla6LilC17jW7RiicPp-19">
          <mxGeometry width="50" height="50" relative="1" as="geometry">
            <mxPoint x="520" y="280" as="sourcePoint" />
            <mxPoint x="570" y="230" as="targetPoint" />
          </mxGeometry>
        </mxCell>
        <mxCell id="_Wla6LilC17jW7RiicPp-24" value="" style="endArrow=classic;html=1;exitX=0.5;exitY=1;exitDx=0;exitDy=0;entryX=0.5;entryY=0;entryDx=0;entryDy=0;" edge="1" parent="1" source="_Wla6LilC17jW7RiicPp-4" target="_Wla6LilC17jW7RiicPp-6">
          <mxGeometry width="50" height="50" relative="1" as="geometry">
            <mxPoint x="520" y="280" as="sourcePoint" />
            <mxPoint x="570" y="230" as="targetPoint" />
          </mxGeometry>
        </mxCell>
        <mxCell id="_Wla6LilC17jW7RiicPp-25" value="" style="endArrow=classic;html=1;entryX=0.5;entryY=0;entryDx=0;entryDy=0;" edge="1" parent="1" target="_Wla6LilC17jW7RiicPp-16">
          <mxGeometry width="50" height="50" relative="1" as="geometry">
            <mxPoint x="300" y="260" as="sourcePoint" />
            <mxPoint x="570" y="230" as="targetPoint" />
          </mxGeometry>
        </mxCell>
        <mxCell id="_Wla6LilC17jW7RiicPp-26" value="" style="endArrow=classic;html=1;entryX=0.5;entryY=0;entryDx=0;entryDy=0;" edge="1" parent="1" target="_Wla6LilC17jW7RiicPp-20">
          <mxGeometry width="50" height="50" relative="1" as="geometry">
            <mxPoint x="540" y="260" as="sourcePoint" />
            <mxPoint x="690" y="240" as="targetPoint" />
          </mxGeometry>
        </mxCell>
        <mxCell id="_Wla6LilC17jW7RiicPp-28" value="" style="endArrow=classic;html=1;exitX=0.5;exitY=1;exitDx=0;exitDy=0;entryX=0.5;entryY=0;entryDx=0;entryDy=0;" edge="1" parent="1" source="_Wla6LilC17jW7RiicPp-6" target="_Wla6LilC17jW7RiicPp-7">
          <mxGeometry width="50" height="50" relative="1" as="geometry">
            <mxPoint x="300" y="410" as="sourcePoint" />
            <mxPoint x="350" y="360" as="targetPoint" />
          </mxGeometry>
        </mxCell>
        <mxCell id="_Wla6LilC17jW7RiicPp-29" value="" style="endArrow=classic;html=1;exitX=0.5;exitY=1;exitDx=0;exitDy=0;entryX=0.5;entryY=0;entryDx=0;entryDy=0;" edge="1" parent="1" source="_Wla6LilC17jW7RiicPp-19" target="_Wla6LilC17jW7RiicPp-7">
          <mxGeometry width="50" height="50" relative="1" as="geometry">
            <mxPoint x="570" y="430" as="sourcePoint" />
            <mxPoint x="620" y="380" as="targetPoint" />
          </mxGeometry>
        </mxCell>
        <mxCell id="_Wla6LilC17jW7RiicPp-30" value="" style="endArrow=classic;html=1;exitX=0.5;exitY=1;exitDx=0;exitDy=0;entryX=0.5;entryY=0;entryDx=0;entryDy=0;" edge="1" parent="1" source="_Wla6LilC17jW7RiicPp-7" target="_Wla6LilC17jW7RiicPp-8">
          <mxGeometry width="50" height="50" relative="1" as="geometry">
            <mxPoint x="520" y="280" as="sourcePoint" />
            <mxPoint x="570" y="230" as="targetPoint" />
          </mxGeometry>
        </mxCell>
        <mxCell id="_Wla6LilC17jW7RiicPp-31" value="ArtistSongList" style="shape=process;whiteSpace=wrap;html=1;backgroundOutline=1;" vertex="1" parent="1">
          <mxGeometry x="600" y="400" width="120" height="60" as="geometry" />
        </mxCell>
        <mxCell id="_Wla6LilC17jW7RiicPp-32" value="ArtistSong" style="shape=process;whiteSpace=wrap;html=1;backgroundOutline=1;" vertex="1" parent="1">
          <mxGeometry x="600" y="500" width="120" height="60" as="geometry" />
        </mxCell>
        <mxCell id="_Wla6LilC17jW7RiicPp-34" value="" style="endArrow=classic;html=1;exitX=0.5;exitY=1;exitDx=0;exitDy=0;entryX=0.5;entryY=0;entryDx=0;entryDy=0;" edge="1" parent="1" source="_Wla6LilC17jW7RiicPp-31" target="_Wla6LilC17jW7RiicPp-32">
          <mxGeometry width="50" height="50" relative="1" as="geometry">
            <mxPoint x="550" y="280" as="sourcePoint" />
            <mxPoint x="600" y="230" as="targetPoint" />
          </mxGeometry>
        </mxCell>
        <mxCell id="_Wla6LilC17jW7RiicPp-35" value="" style="endArrow=classic;html=1;entryX=0.5;entryY=0;entryDx=0;entryDy=0;exitX=0.5;exitY=1;exitDx=0;exitDy=0;" edge="1" parent="1" source="_Wla6LilC17jW7RiicPp-19" target="_Wla6LilC17jW7RiicPp-31">
          <mxGeometry width="50" height="50" relative="1" as="geometry">
            <mxPoint x="500" y="410" as="sourcePoint" />
            <mxPoint x="550" y="360" as="targetPoint" />
          </mxGeometry>
        </mxCell>
      </root>
    </mxGraphModel>
  </diagram>
</mxfile>
